<?xml version="1.0" encoding="UTF-8"?>
<svg version="1.1" xmlns="http://www.w3.org/2000/svg" width="500" height="500">
<path d="M0 0 C1.67021418 -0.00445668 1.67021418 -0.00445668 3.37417006 -0.0090034 C7.08317435 -0.01763395 10.79214616 -0.01919383 14.50115967 -0.02069092 C17.16954192 -0.025323 19.83792131 -0.0303282 22.50630188 -0.03573608 C29.73988845 -0.0492626 36.97346943 -0.05533476 44.20706654 -0.05974674 C48.73032815 -0.06251791 53.25358765 -0.06675673 57.77684784 -0.07125092 C70.32050059 -0.08343444 82.86415167 -0.09373667 95.40781021 -0.09712601 C96.209095 -0.09734557 97.0103798 -0.09756514 97.83594595 -0.09779136 C98.63904932 -0.09800964 99.44215269 -0.09822791 100.26959252 -0.09845281 C101.89674902 -0.09889626 103.52390552 -0.09934282 105.15106201 -0.09979248 C105.95817248 -0.10001391 106.76528295 -0.10023534 107.59685132 -0.10046348 C120.6717997 -0.10441068 133.74669233 -0.12186642 146.82161918 -0.145152 C160.27141317 -0.1689104 173.72117922 -0.18132984 187.17099452 -0.18249393 C194.71218456 -0.18340798 202.25330184 -0.1890924 209.79447174 -0.20731354 C216.21567207 -0.22277503 222.63677713 -0.22779941 229.05799255 -0.21957543 C232.32865877 -0.21569066 235.59909506 -0.21815113 238.86974525 -0.23063278 C274.99139529 -0.36034727 274.99139529 -0.36034727 287.55487061 10.96856689 C296.89411427 21.31479032 297.12312394 37.03110489 297.0133667 50.21026611 C297.01552014 51.74318261 297.01940899 53.27609747 297.02487183 54.80900574 C297.034446 58.91826871 297.01941698 63.02708746 296.99896574 67.13629675 C296.98121157 71.46238932 296.98492325 75.78847191 296.98568726 80.11459351 C296.98382333 87.36840111 296.96657732 94.62203979 296.93914795 101.87579346 C296.90763564 110.23975155 296.89715477 118.60352554 296.89861906 126.96753871 C296.89997344 135.91517448 296.88608119 144.86274019 296.86772585 153.81035471 C296.86348133 156.3723811 296.86204603 158.93439605 296.86124802 161.49642563 C296.85922763 165.53002883 296.84692517 169.56347975 296.82691574 173.59703255 C296.82111463 175.0699387 296.81860499 176.54286238 296.81977081 178.0157795 C296.82650847 191.71896269 296.01242869 204.72322888 286.02752686 215.07794189 C279.46458464 221.14044189 279.46458464 221.14044189 275.52752686 221.14044189 C275.52752686 221.80044189 275.52752686 222.46044189 275.52752686 223.14044189 C269.83031447 224.72300089 264.29490787 225.39261303 258.40032959 225.69854736 C257.61454497 225.7403758 256.82876036 225.78220425 256.01916409 225.82530022 C246.99308835 226.26778832 237.97256101 226.28539282 228.93768311 226.27325439 C227.13213589 226.27393029 225.32658877 226.27490268 223.52104187 226.27615356 C219.78076287 226.27761144 216.04050808 226.27553463 212.30023193 226.27081299 C207.50537525 226.26505427 202.7105738 226.26844502 197.91571903 226.27438545 C194.20720498 226.27799031 190.49870418 226.2768539 186.79018974 226.27425766 C185.02032909 226.27359138 183.25046723 226.27440637 181.48060799 226.27673721 C179.02363987 226.27926917 176.5667635 226.27541828 174.10980225 226.26983643 C173.38210632 226.27186066 172.6544104 226.27388489 171.90466309 226.27597046 C168.83330584 226.26300675 166.46587479 226.11989121 163.52752686 225.14044189 C163.52752686 236.69044189 163.52752686 248.24044189 163.52752686 260.14044189 C174.53682896 260.10092077 174.53682896 260.10092077 185.54608154 260.050354 C186.93052086 260.04743225 188.31496104 260.0448843 189.69940186 260.04278564 C190.41305908 260.03766968 191.12671631 260.03255371 191.86199951 260.02728271 C195.22845127 260.02669294 198.30939223 260.08835942 201.52752686 261.14044189 C201.52752686 261.80044189 201.52752686 262.46044189 201.52752686 263.14044189 C202.84752686 263.47044189 204.16752686 263.80044189 205.52752686 264.14044189 C205.85752686 265.46044189 206.18752686 266.78044189 206.52752686 268.14044189 C207.18752686 268.14044189 207.84752686 268.14044189 208.52752686 268.14044189 C210.15436028 273.82123925 210.55285596 279.81014846 208.15252686 285.26544189 C207.61627686 285.88419189 207.08002686 286.50294189 206.52752686 287.14044189 C205.86752686 287.14044189 205.20752686 287.14044189 204.52752686 287.14044189 C204.19752686 288.13044189 203.86752686 289.12044189 203.52752686 290.14044189 C199.55408921 291.8632156 196.09624128 292.38914421 191.79476929 292.38095093 C190.67585297 292.38370026 189.55693665 292.38644958 188.40411377 292.38928223 C187.19138794 292.38209167 185.97866211 292.37490112 184.72918701 292.36749268 C182.7966658 292.36793076 182.7966658 292.36793076 180.82510376 292.36837769 C177.30485388 292.36894998 173.78474113 292.3572158 170.26452303 292.34322977 C166.58098838 292.33070173 162.89745037 292.32955028 159.21389771 292.32717896 C152.24420494 292.32097027 145.27457514 292.30456776 138.30491006 292.28447998 C130.36780868 292.26210191 122.43070424 292.25112275 114.49357915 292.24108911 C98.1715249 292.22020097 81.84953392 292.18503692 65.52752686 292.14044189 C65.84137518 292.9611467 65.84137518 292.9611467 66.16156387 293.7984314 C66.43430004 294.51731537 66.70703621 295.23619934 66.98803711 295.97686768 C67.25914433 296.68900421 67.53025154 297.40114075 67.80957413 298.13485718 C69.20562387 302.03469056 69.68972486 306.05676489 70.27752686 310.14044189 C70.41545654 310.99122314 70.55338623 311.84200439 70.69549561 312.71856689 C72.53619446 325.0910994 72.53619446 325.0910994 69.43860054 329.79353237 C64.99927379 334.30293059 60.84653381 334.80979066 54.6476748 334.91656196 C52.47282997 334.92044055 50.29937416 334.8950861 48.12469482 334.86920166 C46.55543303 334.87242338 44.98617475 334.87824429 43.41693115 334.88645935 C39.1688565 334.90096064 34.9217321 334.87809673 30.67377234 334.84760022 C26.22384114 334.82118947 21.77393769 334.82653235 17.32394409 334.8276825 C9.8540462 334.82487596 2.3845147 334.79886825 -5.08526611 334.75787354 C-13.71900424 334.71066577 -22.35234162 334.6948806 -30.9861995 334.69708019 C-40.1846092 334.69910704 -49.38286464 334.67828462 -58.58122778 334.65074039 C-61.22963517 334.64434971 -63.87801764 334.64221732 -66.52643204 334.64102364 C-70.68802277 334.63800821 -74.84927762 334.61967734 -79.01075745 334.58952522 C-80.53734658 334.58076993 -82.06397437 334.57707015 -83.59058762 334.57880783 C-85.67544291 334.58028283 -87.75936116 334.56328872 -89.84408569 334.5415802 C-91.59337718 334.5340389 -91.59337718 334.5340389 -93.37800789 334.52634525 C-96.82839664 334.09605553 -98.6924096 333.19275985 -101.47247314 331.14044189 C-105.7233097 325.5703802 -105.0397331 318.80385552 -104.47247314 312.14044189 C-103.72929118 308.05041327 -102.64722414 304.12462098 -101.47247314 300.14044189 C-101.21723877 298.98221924 -101.21723877 298.98221924 -100.95684814 297.80059814 C-96.25253671 278.14329681 -81.63549503 260.46876219 -65.05450439 249.58184814 C-62.47247314 248.14044189 -62.47247314 248.14044189 -60.47247314 248.14044189 C-60.47247314 247.48044189 -60.47247314 246.82044189 -60.47247314 246.14044189 C-58.16904116 245.19040889 -55.85969368 244.26230764 -53.53887939 243.35528564 C-51.51056748 242.55171239 -49.49659742 241.7108514 -47.49981689 240.83184814 C-36.49086827 236.32393115 -25.25605341 235.69828594 -13.47247314 235.14044189 C-12.31747314 235.07469971 -11.16247314 235.00895752 -9.97247314 234.94122314 C-4.95097775 235.22704487 -0.26852527 236.38009436 4.59002686 237.64044189 C5.60556641 237.90308838 6.62110596 238.16573486 7.66741943 238.43634033 C16.26198851 240.80037635 23.10179886 244.27039281 30.52752686 249.14044189 C31.84885784 249.83059163 33.17724566 250.50880678 34.52752686 251.14044189 C34.52752686 251.80044189 34.52752686 252.46044189 34.52752686 253.14044189 C35.08182373 253.39052002 35.63612061 253.64059814 36.20721436 253.89825439 C38.93479004 255.35847168 41.22631883 257.09620271 43.65252686 259.01544189 C44.95576904 260.03251221 44.95576904 260.03251221 46.28533936 261.07012939 C48.41710729 263.03848654 49.46416873 264.47607265 50.52752686 267.14044189 C51.07022217 266.71891846 51.61291748 266.29739502 52.17205811 265.86309814 C53.24520264 265.0413208 53.24520264 265.0413208 54.34002686 264.20294189 C55.40156982 263.38503174 55.40156982 263.38503174 56.48455811 262.55059814 C60.01101653 260.11646527 62.90639592 260.02075337 67.07049561 260.04278564 C68.52105347 260.04653198 68.52105347 260.04653198 70.00091553 260.050354 C71.83940063 260.06401001 71.83940063 260.06401001 73.71502686 260.07794189 C79.56221436 260.10887939 79.56221436 260.10887939 85.52752686 260.14044189 C85.52752686 248.92044189 85.52752686 237.70044189 85.52752686 226.14044189 C67.70752686 226.14044189 49.88752686 226.14044189 31.52752686 226.14044189 C32.51440318 222.1929366 33.80607481 219.77337679 35.90252686 216.32794189 C45.26022783 200.48300036 46.59593374 184.04921861 42.52752686 166.14044189 C39.64808202 157.38251384 35.9788635 150.66542394 29.52752686 144.14044189 C28.56347507 142.93666601 27.60500091 141.72839919 26.65252686 140.51544189 C23.69415003 137.00236942 20.19769134 134.75861027 16.28533936 132.40216064 C15.70526123 131.98579346 15.12518311 131.56942627 14.52752686 131.14044189 C14.52752686 130.48044189 14.52752686 129.82044189 14.52752686 129.14044189 C-4.11604264 122.6497177 -20.24301746 120.16873872 -39.47247314 126.14044189 C-40.18532471 126.50266846 -40.89817627 126.86489502 -41.63262939 127.23809814 C-43.47247314 128.14044189 -43.47247314 128.14044189 -46.47247314 128.14044189 C-47.20522831 122.23694186 -47.61815224 116.49543702 -47.60186768 110.55059814 C-47.60362 109.74444061 -47.60537231 108.93828308 -47.60717773 108.10769653 C-47.6115384 105.47275568 -47.60867881 102.83788329 -47.60528564 100.20294189 C-47.60596035 98.35406481 -47.60693176 96.50518782 -47.60818481 94.65631104 C-47.60965395 90.79326528 -47.60753249 86.93024275 -47.60284424 83.06719971 C-47.59714744 78.13479259 -47.60043065 73.20243991 -47.6064167 68.27003479 C-47.6100435 64.4557454 -47.60887401 60.64146875 -47.60628891 56.82717896 C-47.6056255 55.00924676 -47.60642741 53.19131338 -47.60876846 51.37338257 C-47.61132993 48.82565276 -47.60740558 46.2780091 -47.60186768 43.73028564 C-47.60389191 42.9913205 -47.60591614 42.25235535 -47.60800171 41.49099731 C-47.55837112 29.06225793 -45.4056665 18.84623202 -36.40997314 9.57794189 C-25.82467689 -0.1235725 -13.66035712 -0.01156411 0 0 Z " fill="#060606" transform="translate(164.47247314453125,78.85955810546875)"/>
<path d="M0 0 C1.12273494 0.85714173 2.24735875 1.71182327 3.375 2.5625 C6.53950262 5.50096672 8.01710075 8.17583717 10 12 C10.99 13.485 10.99 13.485 12 15 C16.89812877 27.89690786 16.05098465 41.00047596 10.8125 53.5625 C5.6987288 64.31646003 -2.93907511 72.09806704 -14.125 76.125 C-25.33547971 79.53688513 -36.71165576 80.72716754 -47.4140625 75.390625 C-48.26742187 74.93171875 -49.12078125 74.4728125 -50 74 C-50.77085938 73.66484375 -51.54171875 73.3296875 -52.3359375 72.984375 C-57.18812814 70.85590476 -59.76159484 68.28869873 -63 64 C-63.845625 63.195625 -64.69125 62.39125 -65.5625 61.5625 C-72.54876769 54.21796217 -75.37451089 44.1729526 -76.1484375 34.2265625 C-75.83092416 27.32482525 -73.81325143 20.63821231 -72 14 C-71.34 14 -70.68 14 -70 14 C-69.74089844 13.27554688 -69.48179688 12.55109375 -69.21484375 11.8046875 C-64.61064959 1.17506884 -55.44459373 -5.04027948 -45.3125 -9.875 C-29.14990041 -15.36418477 -12.36891887 -11.02116321 0 0 Z " fill="#0C0C0C" transform="translate(178,229)"/>
<path d="M0 0 C3.46733707 2.73737137 6.38054426 5.88608853 8.375 9.875 C9.16326335 16.96937014 6.61063938 23.22042125 4.375 29.875 C3.9007524 31.29808072 3.4268145 32.72126466 2.953125 34.14453125 C2.42712671 35.72136864 1.9010837 37.29819111 1.375 38.875 C0.83458567 40.49607717 0.29422289 42.11717152 -0.24609375 43.73828125 C-0.6805481 45.04140259 -0.6805481 45.04140259 -1.1237793 46.37084961 C-1.77537035 48.32596169 -2.42654537 50.28121244 -3.07739258 52.23657227 C-4.99635851 57.99946282 -6.92105622 63.76031739 -8.85643005 69.51771545 C-9.9145154 72.66668929 -10.97006743 75.81650992 -12.02542114 78.96640015 C-12.54095741 80.50309439 -13.05757944 82.0394249 -13.57540894 83.5753479 C-16.55321581 92.40970659 -19.39801678 101.26157336 -21.96733093 110.22434998 C-27.25266738 128.61766991 -27.25266738 128.61766991 -34.48046875 133 C-38.47511133 134.62987238 -42.40920984 134.62620071 -46.625 133.875 C-50.85908787 131.49090664 -53.80493379 128.39525832 -55.625 123.875 C-55.92578125 121.76171875 -55.92578125 121.76171875 -55.9375 119.5625 C-55.96263672 118.48548828 -55.96263672 118.48548828 -55.98828125 117.38671875 C-55.58445116 114.59464622 -54.58960247 112.32191486 -53.42944336 109.76489258 C-52.06552864 106.56062434 -51.18370182 103.22497071 -50.25 99.875 C-47.98362932 91.78309906 -45.3096397 83.83541727 -42.625 75.875 C-40.878786 70.68315147 -39.13598107 65.49016237 -37.39550781 60.29638672 C-36.88291568 58.76868026 -36.36924811 57.24133421 -35.85449219 55.71435547 C-32.60255568 46.06391365 -29.54220249 36.38336038 -26.70605469 26.60253906 C-20.29819643 4.50787331 -20.29819643 4.50787331 -12.625 -0.125 C-8.1946678 -1.6017774 -4.34751363 -1.86322013 0 0 Z " fill="#FDFDFD" transform="translate(312.625,126.125)"/>
<path d="M0 0 C4.83763525 2.32923179 7.63619663 5.18147775 10 10 C10.81876207 13.80442031 10.91761477 17.30604816 9.02636719 20.79736328 C4.10951108 27.23323369 -1.61292217 32.83583501 -7.375 38.5 C-8.40801986 39.52296535 -9.44057558 40.54639961 -10.47265625 41.5703125 C-12.9764488 44.05229814 -15.48644255 46.52789935 -18 49 C-14.61127669 53.69297421 -11.21161903 58.0030662 -7 62 C-4.42920075 64.51242053 -1.87158901 67.03816099 0.6875 69.5625 C1.36361328 70.22185547 2.03972656 70.88121094 2.73632812 71.56054688 C3.38408203 72.20185547 4.03183594 72.84316406 4.69921875 73.50390625 C5.28533936 74.07955322 5.87145996 74.6552002 6.4753418 75.24829102 C9.64449071 78.88938685 10.45256051 82.04100431 10.31640625 86.90625 C9.61540333 91.54498539 7.33571728 94.91698599 3.6875 97.875 C-1.27250115 99.95127955 -5.80239074 100.5736686 -11.00549316 98.97323608 C-15.42890962 96.81479349 -18.69729397 92.98763209 -22.109375 89.51953125 C-23.38231415 88.25021004 -23.38231415 88.25021004 -24.68096924 86.95524597 C-26.46867753 85.16656017 -28.25019722 83.37167047 -30.02587891 81.57104492 C-32.73885863 78.82378216 -35.47498377 76.10128598 -38.21484375 73.38085938 C-39.9519574 71.63684637 -41.68768206 69.89144855 -43.421875 68.14453125 C-44.23750916 67.33385696 -45.05314331 66.52318268 -45.89349365 65.6879425 C-50.12843781 61.36451949 -53.22919142 57.83652357 -55 52 C-54.65834485 42.26282831 -49.31900824 36.87833917 -42.75390625 30.390625 C-41.54262306 29.17859406 -41.54262306 29.17859406 -40.30686951 27.94207764 C-38.60327539 26.2408181 -36.89600163 24.54323627 -35.18530273 22.84912109 C-32.56642708 20.25389162 -29.96117813 17.64554534 -27.35742188 15.03515625 C-25.69870821 13.38201791 -24.0392288 11.72964746 -22.37890625 10.078125 C-21.59963272 9.29794006 -20.82035919 8.51775513 -20.01747131 7.71392822 C-19.28668869 6.99267761 -18.55590607 6.271427 -17.80297852 5.52832031 C-17.16360855 4.89355774 -16.52423859 4.25879517 -15.86549377 3.60479736 C-11.02324139 -0.56076672 -6.16761027 -0.78071016 0 0 Z " fill="#FCFCFC" transform="translate(240,143)"/>
<path d="M0 0 C3.81215804 3.12238469 7.18712198 6.71439663 10.61962891 10.24145508 C15.61316967 15.34867678 20.6364834 20.28896239 26.05664062 24.94335938 C28.66831908 27.24189327 30.84748695 29.80238473 33.06884766 32.46801758 C34.70208176 34.44199319 34.70208176 34.44199319 36.51416016 36.13989258 C39.8440333 39.46196743 41.1501567 41.71807302 41.30712891 46.49145508 C41.09657336 55.15230655 35.31171482 60.29353492 29.53369141 66.00317383 C28.32596573 67.21164726 28.32596573 67.21164726 27.09384155 68.4445343 C25.39444346 70.14159757 23.69136515 71.83498253 21.98486328 73.52490234 C19.37698899 76.10916164 16.7827099 78.70650293 14.18994141 81.3059082 C12.53448238 82.95579077 10.87825782 84.60490565 9.22119141 86.25317383 C8.44707916 87.02819748 7.67296692 87.80322113 6.87539673 88.60173035 C6.14468964 89.32290543 5.41398254 90.04408051 4.66113281 90.78710938 C4.02398346 91.41965134 3.38683411 92.0521933 2.7303772 92.7039032 C-1.43889601 96.32581873 -4.62058479 97.95868688 -10.26708984 97.71411133 C-14.79052506 97.06536718 -17.55581279 95.20414131 -20.56787109 91.86645508 C-23.82461269 87.16227278 -24.11603479 83.06464717 -23.25537109 77.42895508 C-21.70220952 74.31708492 -19.63839344 71.9434908 -17.25537109 69.42895508 C-16.42585938 68.53563477 -16.42585938 68.53563477 -15.57958984 67.62426758 C-12.00184088 63.92314796 -8.15302979 60.56346188 -4.25537109 57.20629883 C-1.11749008 54.41775222 1.81873214 51.43714269 4.74462891 48.42895508 C3.15638473 44.46243202 0.39060216 41.8678184 -2.63037109 38.96411133 C-3.70861367 37.90628845 -4.78673495 36.84834193 -5.86474609 35.7902832 C-7.56081498 34.13769696 -9.25928109 32.48766881 -10.96044922 30.84033203 C-12.60692606 29.24226695 -14.24398035 27.6349935 -15.88037109 26.02661133 C-16.38874512 25.53999527 -16.89711914 25.05337921 -17.42089844 24.55201721 C-21.41972854 20.60957149 -23.06174853 17.55880328 -23.56787109 11.99145508 C-23.13140871 7.01578392 -21.50026493 3.91479611 -18.31787109 0.11645508 C-12.96687009 -4.26163666 -5.47866535 -3.89055899 0 0 Z " fill="#FEFEFE" transform="translate(351.25537109375,145.571044921875)"/>
<path d="M0 0 C-3.77380137 2.42148315 -7.67806381 2.44071429 -12.02563477 2.61669922 C-12.81875093 2.65429792 -13.61186708 2.69189663 -14.42901707 2.73063469 C-23.48057759 3.12382375 -32.53142404 3.14498255 -41.58984375 3.1328125 C-43.39539096 3.1334884 -45.20093808 3.13446079 -47.00648499 3.13571167 C-50.74676398 3.13716954 -54.48701878 3.13509273 -58.22729492 3.13037109 C-63.02215161 3.12461237 -67.81695305 3.12800313 -72.61180782 3.13394356 C-76.32032187 3.13754842 -80.02882268 3.136412 -83.73733711 3.13381577 C-85.50719777 3.13314949 -87.27705963 3.13396447 -89.04691887 3.13629532 C-91.50388699 3.13882727 -93.96076336 3.13497638 -96.41772461 3.12939453 C-97.14542053 3.13141876 -97.87311646 3.13344299 -98.62286377 3.13552856 C-101.69422102 3.12256486 -104.06165207 2.97944931 -107 2 C-107 13.55 -107 25.1 -107 37 C-95.99069789 36.96047887 -95.99069789 36.96047887 -84.98144531 36.90991211 C-83.59700599 36.90699035 -82.21256581 36.90444241 -80.828125 36.90234375 C-79.75763916 36.8946698 -79.75763916 36.8946698 -78.66552734 36.88684082 C-75.29907558 36.88625104 -72.21813462 36.94791753 -69 38 C-69 38.66 -69 39.32 -69 40 C-88.8 39.505 -88.8 39.505 -109 39 C-109 26.46 -109 13.92 -109 1 C-95.5264399 0.86936077 -82.05287787 0.73892506 -68.57931232 0.60884857 C-62.32313731 0.54844205 -56.06696319 0.48794601 -49.81079102 0.42724609 C-43.77430101 0.3686809 -37.73780878 0.31034994 -31.70131493 0.25218201 C-29.39721788 0.22993833 -27.09312165 0.20760998 -24.78902626 0.18519592 C-21.56418694 0.15383935 -18.33934486 0.12278268 -15.11450195 0.09179688 C-14.16000153 0.08244614 -13.2055011 0.0730954 -12.22207642 0.0634613 C-10.8991584 0.05084007 -10.8991584 0.05084007 -9.54951477 0.03796387 C-8.78719197 0.03058952 -8.02486917 0.02321518 -7.23944569 0.01561737 C-4.82623073 -0.00121183 -2.41326584 -0.00258436 0 0 Z " fill="#AEAEAE" transform="translate(435,302)"/>
<path d="M0 0 C5.66666667 5.66666667 11.33333333 11.33333333 17 17 C15.35 18.98 13.7 20.96 12 23 C13.68807908 27.23084903 13.68807908 27.23084903 17 30 C17 31.65 17 33.3 17 35 C16.44570312 34.30648437 15.89140625 33.61296875 15.3203125 32.8984375 C14.55460937 31.94195312 13.78890625 30.98546875 13 30 C12.19304687 28.98164063 11.38609375 27.96328125 10.5546875 26.9140625 C5.49392004 20.65476661 0.74744293 15.53692062 -6.19921875 11.26953125 C-6.79347656 10.85058594 -7.38773438 10.43164062 -8 10 C-8 9.34 -8 8.68 -8 8 C-6.02 7.34 -4.04 6.68 -2 6 C-2 5.34 -2 4.68 -2 4 C-1.34 4 -0.68 4 0 4 C-0.33 3.01 -0.66 2.02 -1 1 C-0.67 0.67 -0.34 0.34 0 0 Z " fill="#0D0D0D" transform="translate(187,200)"/>
<path d="M0 0 C0.33 0.66 0.66 1.32 1 2 C18.82 2 36.64 2 55 2 C55.020625 8.084375 55.04125 14.16875 55.0625 20.4375 C55.071604 22.36005615 55.08070801 24.2826123 55.09008789 26.26342773 C55.09300707 27.77848236 55.09555562 29.29353777 55.09765625 30.80859375 C55.10277222 31.60237427 55.10788818 32.39615479 55.11315918 33.21398926 C55.11346956 35.14302829 55.06235893 37.07196912 55 39 C54 40 54 40 51.51904297 40.11010742 C50.43768066 40.10857666 49.35631836 40.1070459 48.2421875 40.10546875 C47.05882812 40.12029297 45.87546875 40.13511719 44.65625 40.15039062 C42.158969 40.17489906 39.66142191 40.18047402 37.1640625 40.16601562 C29.27533345 40.23162727 29.27533345 40.23162727 22.6328125 44.05078125 C21.32957031 45.51064453 21.32957031 45.51064453 20 47 C19.34 46.67 18.68 46.34 18 46 C19.26572233 44.84852339 20.53777906 43.70400686 21.8125 42.5625 C22.52019531 41.92441406 23.22789062 41.28632813 23.95703125 40.62890625 C27.39411881 37.88843682 30.30139276 37.87990155 34.54296875 37.90234375 C35.99352661 37.90609009 35.99352661 37.90609009 37.47338867 37.90991211 C38.69904541 37.91901611 39.92470215 37.92812012 41.1875 37.9375 C47.0346875 37.9684375 47.0346875 37.9684375 53 38 C53 26.78 53 15.56 53 4 C35.18 4 17.36 4 -1 4 C-0.67 2.68 -0.34 1.36 0 0 Z " fill="#B3B3B3" transform="translate(197,301)"/>
<path d="M0 0 C-0.33 0.99 -0.66 1.98 -1 3 C-4.97343765 4.72277371 -8.43128557 5.24870231 -12.73275757 5.24050903 C-13.85167389 5.24325836 -14.97059021 5.24600769 -16.12341309 5.24884033 C-17.33613892 5.24164978 -18.54886475 5.23445923 -19.79833984 5.22705078 C-21.73086105 5.22748886 -21.73086105 5.22748886 -23.7024231 5.22793579 C-27.22267298 5.22850808 -30.74278573 5.2167739 -34.26300383 5.20278788 C-37.94653847 5.19025983 -41.63007649 5.18910838 -45.31362915 5.18673706 C-52.28332192 5.18052838 -59.25295171 5.16412586 -66.22261679 5.14403808 C-74.15971818 5.12166002 -82.09682261 5.11068086 -90.03394771 5.10064721 C-106.35600196 5.07975907 -122.67799294 5.04459502 -139 5 C-139.33 5.99 -139.66 6.98 -140 8 C-140 6.68 -140 5.36 -140 4 C-139.32523809 3.99761165 -138.65047619 3.99522329 -137.95526695 3.99276257 C-121.52969681 3.93360237 -105.10429201 3.85804585 -88.67888451 3.76428509 C-80.73564354 3.71933744 -72.7924473 3.67992043 -64.84912109 3.65356445 C-57.92495639 3.63057598 -51.00093337 3.59716854 -44.07688105 3.55129844 C-40.41131343 3.52737754 -36.74588603 3.5086414 -33.08024216 3.50238609 C-28.98607165 3.49520417 -24.89238858 3.46475958 -20.79833984 3.43237305 C-19.58561401 3.43380814 -18.37288818 3.43524323 -17.12341309 3.4367218 C-10.95987034 3.36765551 -5.42852028 0 0 0 Z " fill="#F7F7F7" transform="translate(369,366)"/>
<path d="M0 0 C2 2 2 2 2.125 4.625 C2.08375 5.40875 2.0425 6.1925 2 7 C2.886875 6.566875 3.77375 6.13375 4.6875 5.6875 C19.24954023 -0.44081352 36.47635359 -1.294443 51.34375 4.24609375 C54.25536435 5.44679453 57.13594882 6.69043384 60 8 C56.36659385 9.21113538 55.26598054 8.35348115 51.92236328 6.81445312 C38.07259978 0.94668439 21.94321645 2.48895938 8 7 C7.29101562 7.36222656 6.58203125 7.72445312 5.8515625 8.09765625 C4 9 4 9 1 9 C0.67 6.03 0.34 3.06 0 0 Z " fill="#C3C3C3" transform="translate(117,198)"/>
<path d="M0 0 C0.6875 1.5625 0.6875 1.5625 1 4 C0.5153125 4.928125 0.030625 5.85625 -0.46875 6.8125 C-2.97323045 12.39784846 -2.31504821 18.44273399 -2.1875 24.4375 C-2.17396484 25.64599609 -2.16042969 26.85449219 -2.14648438 28.09960938 C-2.11129946 31.06687082 -2.06206696 34.03319937 -2 37 C-6.2830848 30.57537279 -6.65930535 21.69316247 -5.234375 14.23046875 C-4.31011508 10.10756971 -3.19980928 6.0505958 -2 2 C-1.34 2 -0.68 2 0 2 C0 1.34 0 0.68 0 0 Z " fill="#979797" transform="translate(108,241)"/>
<path d="M0 0 C9.27244651 3.16218425 15.68378985 11.43257341 21.40625 19.03125 C22.85689315 21.10086447 22.85689315 21.10086447 25 22 C25 23.65 25 25.3 25 27 C24.44570312 26.30648437 23.89140625 25.61296875 23.3203125 24.8984375 C22.55460937 23.94195312 21.78890625 22.98546875 21 22 C20.19304687 20.98164063 19.38609375 19.96328125 18.5546875 18.9140625 C13.49392004 12.65476661 8.74744293 7.53692062 1.80078125 3.26953125 C1.20652344 2.85058594 0.61226562 2.43164062 0 2 C0 1.34 0 0.68 0 0 Z " fill="#D7D7D7" transform="translate(179,208)"/>
<path d="M0 0 C8.40986141 1.28586633 14.15001577 6.52660846 19.1015625 13.16796875 C20 15 20 15 19 18 C18.64808594 17.49210937 18.29617188 16.98421875 17.93359375 16.4609375 C12.97133822 9.54228357 7.89027372 4.46402261 0 1 C0 0.67 0 0.34 0 0 Z " fill="#D4D4D4" transform="translate(437,82)"/>
<path d="M0 0 C-1 3 -1 3 -3.3515625 4.1796875 C-8.39329954 5.31326863 -13.22665873 5.21135927 -18.375 5.125 C-19.39722656 5.11597656 -20.41945313 5.10695313 -21.47265625 5.09765625 C-23.98201522 5.0742043 -26.49088336 5.04138355 -29 5 C-29 4.67 -29 4.34 -29 4 C-28.39526855 3.98541748 -27.79053711 3.97083496 -27.16748047 3.95581055 C-24.40270735 3.88090812 -21.63908643 3.78438927 -18.875 3.6875 C-17.44800781 3.65366211 -17.44800781 3.65366211 -15.9921875 3.61914062 C-10.28442052 3.40113564 -5.101986 0 0 0 Z " fill="#EEEEEE" transform="translate(369,366)"/>
<path d="M0 0 C-1.46966358 3.39859703 -3.38037514 5.64963709 -6 8.25 C-6.70125 8.95640625 -7.4025 9.6628125 -8.125 10.390625 C-10 12 -10 12 -12 12 C-9.98697969 7.241952 -5.71890513 0 0 0 Z " fill="#595959" transform="translate(123,226)"/>
<path d="M0 0 C0.66 0.33 1.32 0.66 2 1 C-0.35802849 4.35088259 -2.98863141 7.22027515 -6 10 C-6.66 10 -7.32 10 -8 10 C-8 10.99 -8 11.98 -8 13 C-8.66 13 -9.32 13 -10 13 C-8.65515286 8.95838045 -6.9494838 6.61321846 -3.875 3.6875 C-3.15054688 2.99011719 -2.42609375 2.29273437 -1.6796875 1.57421875 C-1.12539062 1.05472656 -0.57109375 0.53523438 0 0 Z " fill="#8A8A8A" transform="translate(132,85)"/>
<path d="M0 0 C1.1875 1.6875 1.1875 1.6875 2 4 C1.0727001 5.70818403 0.05287814 7.36622358 -1 9 C-2.11768014 11.96384822 -3.0700003 14.97255418 -4 18 C-4.33 18 -4.66 18 -5 18 C-3.41463415 3.41463415 -3.41463415 3.41463415 0 0 Z " fill="#A5A5A5" transform="translate(67,368)"/>
<path d="M0 0 C-1.40929697 3.47132095 -2.90605083 4.88093274 -6.125 6.75 C-6.84945312 7.17796875 -7.57390625 7.6059375 -8.3203125 8.046875 C-8.87460938 8.36140625 -9.42890625 8.6759375 -10 9 C-8.22001491 4.99503355 -4.82420328 0 0 0 Z " fill="#959595" transform="translate(95,333)"/>
<path d="M0 0 C0 0.66 0 1.32 0 2 C1.32 2.66 2.64 3.32 4 4 C0.92677456 4.91058531 -1.80097361 5.08886184 -5 5 C-5.33 4.34 -5.66 3.68 -6 3 C-3.375 0 -3.375 0 0 0 Z " fill="#5D5D5D" transform="translate(199,330)"/>
<path d="M0 0 C1 2 1 2 0.375 5.5 C-1 9 -1 9 -3.625 10.4375 C-4.40875 10.623125 -5.1925 10.80875 -6 11 C-4.54955729 6.89041233 -2.48889248 3.56741255 0 0 Z " fill="#747474" transform="translate(204,290)"/>
<path d="M0 0 C0.70189453 0.01353516 1.40378906 0.02707031 2.12695312 0.04101562 C3.85579829 0.07629818 5.58424765 0.13010417 7.3125 0.1875 C7.3125 0.5175 7.3125 0.8475 7.3125 1.1875 C6.24322266 1.27837891 6.24322266 1.27837891 5.15234375 1.37109375 C-0.15710288 1.83558101 -5.420909 2.36825251 -10.6875 3.1875 C-7.97885416 -0.76650025 -4.33266512 -0.15777212 0 0 Z " fill="#E3E3E3" transform="translate(140.6875,199.8125)"/>
<path d="M0 0 C3.66881155 0.70554068 6.70450534 2.27735506 10 4 C7.45297384 5.27351308 6.5717055 4.80191925 3.875 4.0625 C3.15054688 3.86785156 2.42609375 3.67320312 1.6796875 3.47265625 C1.12539062 3.31667969 0.57109375 3.16070312 0 3 C0 2.01 0 1.02 0 0 Z " fill="#A4A4A4" transform="translate(178,320)"/>
</svg>
